<?xml version="1.0" standalone="no"?>
<!DOCTYPE svg PUBLIC "-//W3C//DTD SVG 20010904//EN"
 "http://www.w3.org/TR/2001/REC-SVG-20010904/DTD/svg10.dtd">
<svg version="1.0" xmlns="http://www.w3.org/2000/svg"
 width="461.000000pt" height="169.000000pt" viewBox="0 0 461.000000 169.000000"
 preserveAspectRatio="xMidYMid meet">

<g transform="translate(0.000000,169.000000) scale(0.100000,-0.100000)"
fill="#000000" stroke="none">
<path d="M0 845 l0 -845 2305 0 2305 0 0 845 0 845 -2305 0 -2305 0 0 -845z
m1325 680 c96 -49 121 -94 132 -236 15 -192 -62 -444 -196 -642 -97 -144 -256
-292 -301 -280 -29 8 -25 17 19 46 105 69 240 236 300 369 77 172 106 303 99
447 -6 120 -31 182 -98 245 -55 51 -90 61 -187 53 -72 -5 -73 -4 -17 18 64 24
179 15 249 -20z m-158 -81 c84 -48 123 -141 123 -292 0 -191 -74 -395 -204
-559 -92 -116 -199 -198 -240 -184 -15 6 -13 11 20 33 66 43 143 118 189 183
183 256 225 599 89 739 -55 56 -89 70 -171 69 -40 0 -71 2 -68 6 4 7 70 24
130 34 37 7 90 -5 132 -29z m-365 -116 c-123 -153 -196 -312 -246 -540 -8 -35
-36 -38 -36 -4 0 42 50 199 90 284 47 99 121 207 189 280 28 28 53 52 56 52 3
0 -21 -33 -53 -72z m219 29 c58 -31 103 -105 120 -198 20 -115 -10 -266 -84
-414 -29 -59 -88 -148 -93 -142 -7 7 25 106 49 154 45 87 71 198 72 298 0 84
-3 96 -35 160 -40 80 -92 123 -158 132 -34 5 -40 8 -31 19 19 23 109 18 160
-9z m-317 -79 c-99 -107 -198 -307 -226 -455 -7 -40 -16 -63 -25 -63 -19 0
-16 26 13 126 32 112 62 178 119 263 46 69 127 161 141 161 4 0 -6 -15 -22
-32z m185 2 c90 -45 126 -132 118 -279 -2 -53 -8 -105 -13 -116 -7 -17 -9 -16
-16 10 -5 17 -13 70 -18 119 -13 130 -66 223 -142 248 -17 6 -2 38 17 38 9 0
33 -9 54 -20z m706 -93 l25 -67 -31 -98 c-56 -174 -133 -319 -249 -473 -93
-121 -231 -236 -270 -224 -29 9 -25 19 20 49 111 73 253 250 339 424 64 128
96 235 126 426 4 21 8 36 10 34 3 -2 16 -34 30 -71z m-991 31 c-4 -7 -22 -31
-39 -53 -77 -97 -135 -223 -157 -338 -8 -42 -17 -67 -26 -67 -9 0 -11 10 -6
38 24 143 94 285 192 394 34 38 50 49 36 26z m241 -60 c22 -32 10 -34 -26 -4
-17 15 -37 25 -43 23 -6 -2 -17 -23 -24 -48 -7 -24 -28 -91 -47 -149 -18 -58
-39 -131 -45 -162 -9 -47 -15 -58 -31 -58 -24 0 -24 21 -3 104 21 84 60 187
106 279 l39 78 29 -21 c16 -12 36 -31 45 -42z m2665 -127 c0 -127 -8 -169 -25
-141 -4 7 -12 7 -25 0 -25 -13 -63 -13 -94 1 -24 11 -56 62 -56 89 0 27 32 78
56 89 31 14 69 14 95 1 18 -10 19 -7 19 45 0 42 3 55 15 55 13 0 15 -22 15
-139z m-1492 93 c30 -34 28 -75 -5 -108 l-27 -27 27 -49 c17 -30 23 -51 17
-55 -15 -10 -27 1 -57 55 -20 36 -34 50 -50 50 -19 0 -22 -6 -25 -50 -2 -28
-7 -50 -13 -50 -11 0 -20 233 -10 258 10 25 115 8 143 -24z m932 -19 c0 -17 6
-25 22 -27 31 -4 34 -26 4 -34 -24 -6 -25 -10 -28 -82 -2 -43 -7 -77 -13 -77
-6 0 -11 34 -13 77 -2 66 -6 78 -22 83 -26 8 -26 25 0 32 12 3 20 14 20 27 0
13 3 26 6 29 12 11 24 -3 24 -28z m-738 -36 c18 -10 48 -64 48 -88 0 -6 -35
-11 -77 -13 -86 -3 -102 -19 -50 -48 25 -14 30 -13 58 3 37 21 49 22 49 3 0
-21 -45 -46 -85 -46 -87 0 -125 111 -60 176 26 26 81 32 117 13z m206 -5 c12
-8 22 -19 22 -25 0 -12 -37 -12 -45 1 -20 32 -95 -15 -95 -60 0 -45 75 -92 95
-60 8 13 45 13 45 1 0 -6 -10 -17 -22 -25 -62 -44 -148 5 -148 84 0 79 86 128
148 84z m187 6 c5 -8 11 -7 20 0 26 22 35 -1 35 -90 0 -89 -9 -112 -35 -90 -9
7 -15 8 -20 0 -3 -5 -24 -10 -46 -10 -31 0 -47 7 -70 29 -64 64 -20 171 70
171 22 0 43 -5 46 -10z m234 -14 c19 -20 22 -32 19 -97 -4 -91 -21 -94 -28 -6
-6 71 -21 97 -56 97 -36 0 -54 -36 -54 -108 0 -46 -3 -63 -12 -60 -13 4 -24
157 -15 182 3 6 31 12 64 13 51 3 63 0 82 -21z m330 -2 c27 -22 31 -32 31 -74
0 -42 -4 -52 -31 -74 -67 -56 -159 -13 -159 74 0 87 92 130 159 74z m532 -3
c62 -62 20 -171 -66 -171 -53 0 -95 44 -95 100 0 90 99 133 161 71z m-2077
-324 c-130 -233 -407 -505 -448 -439 -3 5 32 41 79 80 137 116 256 276 353
472 l47 95 3 -70 c3 -66 0 -76 -34 -138z m516 53 l0 -50 44 6 c39 6 48 3 70
-19 23 -23 26 -34 26 -102 0 -60 -3 -75 -15 -75 -12 0 -15 14 -15 65 0 68 -20
105 -55 105 -36 0 -55 -37 -55 -106 0 -48 -3 -65 -12 -62 -10 3 -14 44 -16
146 -2 122 0 142 13 142 11 0 15 -12 15 -50z m760 -89 c0 -140 -6 -165 -35
-141 -9 7 -15 8 -20 0 -3 -5 -24 -10 -46 -10 -57 0 -99 42 -99 100 0 75 77
124 141 90 18 -10 19 -7 19 45 0 48 2 55 20 55 19 0 20 -7 20 -139z m-935 24
c33 -52 63 -95 68 -95 4 0 7 43 7 95 0 79 3 95 15 95 13 0 15 -19 13 -132 -3
-110 -6 -133 -18 -133 -8 0 -42 41 -75 92 -33 51 -63 92 -67 93 -5 0 -8 -43
-8 -95 0 -78 -3 -95 -15 -95 -13 0 -15 22 -15 135 0 172 9 176 95 40z m1000
74 c10 -15 -1 -23 -20 -15 -9 3 -13 10 -10 16 8 13 22 13 30 -1z m-625 -128
c5 -72 15 -90 51 -91 35 0 48 23 51 95 2 54 6 70 18 70 12 0 15 -17 15 -94 l0
-95 -62 -3 c-89 -5 -103 11 -103 118 0 60 3 80 13 77 7 -3 14 -32 17 -77z
m316 54 c23 -23 25 -31 22 -97 -2 -46 -7 -73 -15 -76 -10 -3 -13 14 -13 62 0
53 -4 70 -20 86 -49 49 -90 9 -90 -87 0 -49 -3 -63 -15 -63 -12 0 -15 17 -15
93 0 52 2 96 4 98 3 2 30 5 61 7 48 2 59 -1 81 -23z m312 -80 c-2 -60 -7 -90
-15 -93 -10 -3 -13 20 -13 91 0 51 3 97 7 101 16 16 24 -17 21 -99z m172 95
c13 -7 21 -7 25 0 16 26 25 -9 25 -96 0 -85 -8 -112 -25 -84 -4 7 -12 7 -25 0
-35 -19 -78 -11 -112 19 -27 24 -33 36 -33 71 0 35 6 47 33 71 34 30 77 38
112 19z m211 -1 c14 -7 24 -7 33 0 7 6 16 8 19 4 4 -3 7 -69 7 -145 0 -116 -2
-138 -15 -138 -11 0 -15 12 -15 49 0 48 -12 72 -25 51 -3 -5 -24 -10 -46 -10
-105 0 -137 137 -44 188 26 15 61 15 86 1z m119 -61 c0 -68 17 -98 55 -98 34
0 50 27 55 97 8 97 25 77 25 -29 l0 -92 -59 -3 c-50 -3 -63 0 -83 19 -20 19
-23 31 -23 93 0 39 3 75 6 78 16 15 24 -8 24 -65z m308 60 c8 -8 15 -8 25 0
22 19 27 4 27 -89 0 -85 -12 -119 -31 -88 -6 11 -11 11 -21 1 -19 -19 -82 -15
-111 8 -48 38 -44 130 7 165 25 18 87 20 104 3z m192 -1 c0 -7 -15 -17 -32
-22 -33 -10 -33 -11 -38 -85 -4 -58 -8 -75 -20 -75 -12 0 -16 17 -18 84 -2 46
-1 89 1 95 7 16 107 19 107 3z m150 3 c13 -7 21 -7 25 0 16 26 25 -9 25 -96 0
-85 -8 -112 -25 -84 -4 7 -12 7 -25 0 -71 -38 -162 32 -145 110 13 60 93 98
145 70z m-2484 -172 c-4 -23 -15 -60 -25 -83 -20 -46 -119 -151 -202 -213 -50
-37 -60 -41 -83 -32 -14 5 -26 13 -26 17 1 5 30 29 65 55 63 47 194 187 243
261 13 20 27 37 30 37 2 0 2 -19 -2 -42z"/>
<path d="M3370 1030 c-40 -40 -12 -120 43 -120 28 0 41 9 56 38 36 67 -46 135
-99 82z"/>
<path d="M1900 1076 c0 -52 9 -60 56 -52 75 15 62 96 -16 96 l-40 0 0 -44z"/>
<path d="M2116 1031 c-26 -28 -12 -41 44 -41 27 0 52 5 55 11 11 17 -26 49
-55 49 -15 0 -35 -9 -44 -19z"/>
<path d="M2511 1024 c-12 -15 -21 -34 -21 -44 0 -30 39 -70 69 -70 37 0 61 28
61 72 0 66 -69 93 -109 42z"/>
<path d="M3061 1024 c-12 -15 -21 -34 -21 -44 0 -28 39 -70 66 -70 33 0 64 34
64 70 0 64 -71 92 -109 44z"/>
<path d="M3591 1024 c-12 -15 -21 -34 -21 -44 0 -28 39 -70 65 -70 31 0 65 37
65 70 0 31 -37 70 -67 70 -12 0 -31 -12 -42 -26z"/>
<path d="M2751 684 c-12 -15 -21 -34 -21 -44 0 -10 9 -29 21 -44 26 -33 71
-35 93 -4 52 74 -38 162 -93 92z"/>
<path d="M3050 688 c-54 -58 10 -145 80 -108 36 19 34 97 -4 122 -21 14 -55 8
-76 -14z"/>
<path d="M3265 685 c-30 -30 -31 -54 -4 -89 41 -52 109 -24 109 46 0 65 -59
89 -105 43z"/>
<path d="M3689 692 c-45 -38 -17 -122 41 -122 36 0 60 29 60 72 0 61 -54 88
-101 50z"/>
<path d="M4030 690 c-56 -56 10 -147 80 -110 36 19 34 97 -4 122 -20 14 -56 8
-76 -12z"/>
</g>
</svg>
